<svg width="42" height="42" viewBox="0 0 42 42" fill="none" xmlns="http://www.w3.org/2000/svg">
<rect x="0.5" y="0.5" width="41" height="41" rx="8.5" fill="#F8F8F8"/>
<rect x="0.5" y="0.5" width="41" height="41" rx="8.5" stroke="#E7E7E7"/>
<path d="M31 20.0799V20.9999C30.9988 23.1563 30.3005 25.2545 29.0093 26.9817C27.7182 28.7088 25.9033 29.9723 23.8354 30.5838C21.7674 31.1952 19.5573 31.1218 17.5345 30.3744C15.5117 29.6271 13.7847 28.246 12.611 26.4369C11.4373 24.6279 10.8798 22.4879 11.0217 20.3362C11.1636 18.1844 11.9972 16.1362 13.3983 14.4969C14.7994 12.8577 16.6928 11.7152 18.7962 11.24C20.8996 10.7648 23.1003 10.9822 25.07 11.8599" stroke="#111011" stroke-width="2" stroke-linecap="round" stroke-linejoin="round"/>
<path d="M31 13L21 23.01L18 20.01" stroke="#111011" stroke-width="2" stroke-linecap="round" stroke-linejoin="round"/>
</svg>
