<svg width="48" height="48" viewBox="0 0 48 48" fill="none" xmlns="http://www.w3.org/2000/svg">
<path d="M0 8C0 3.58172 3.58172 0 8 0H40C44.4183 0 48 3.58172 48 8V40C48 44.4183 44.4183 48 40 48H8C3.58172 48 0 44.4183 0 40V8Z" fill="#111011"/>
<path fill-rule="evenodd" clip-rule="evenodd" d="M13.0446 21.6842C17.8426 23.3949 21.4643 24.2061 23.9098 24.1198C23.4217 25.3824 20.6496 31.6749 15.5928 43C19.7243 36.5137 25.6347 32.8659 32.9868 30.729C37.657 29.3721 38.1668 27.4682 34.9554 26.3158C30.1574 24.6051 26.5357 23.7939 24.0902 23.8802C24.5783 22.6176 27.3504 16.3251 32.4072 5C28.2757 11.4863 22.3653 15.1341 15.0132 17.271C10.3429 18.6279 9.83319 20.5318 13.0446 21.6842Z" fill="white"/>
</svg>
