<svg width="395" height="256" viewBox="0 0 395 256" fill="none" xmlns="http://www.w3.org/2000/svg">
<g clip-path="url(#clip0_594_579)">
<path d="M348.969 101.1L346.822 103.196V103.196L348.969 101.1ZM237.211 36.7606L236.998 33.7682V33.7682L237.211 36.7606ZM149.329 85.317L147.161 83.2434C147.146 83.2586 147.132 83.274 147.117 83.2895L149.329 85.317ZM3.70987 193.01L3.81707 196.008V196.008L3.70987 193.01ZM-669 105.5L-669.976 102.663V102.663L-669 105.5ZM-901.5 200L-901.5 203V203L-901.5 200ZM451.263 184.757L451.207 181.757C448.8 181.803 445.705 181.041 441.95 179.387C438.229 177.749 434.06 175.325 429.567 172.274C420.579 166.171 410.544 157.73 400.561 148.563C380.589 130.223 361.174 109.31 351.116 99.0048L348.969 101.1L346.822 103.196C356.734 113.351 376.37 134.495 396.503 152.982C406.573 162.229 416.855 170.895 426.196 177.238C430.866 180.409 435.364 183.044 439.532 184.879C443.664 186.698 447.678 187.825 451.32 187.756L451.263 184.757ZM348.969 101.1L351.116 99.0048C341.117 88.761 324.13 71.7083 304 57.6117C283.955 43.575 260.29 32.1079 236.998 33.7682L237.211 36.7606L237.425 39.753C258.607 38.2431 280.836 48.7158 300.558 62.5265C320.195 76.2774 336.85 92.9796 346.822 103.196L348.969 101.1ZM237.211 36.7606L236.998 33.7682C213.921 35.4131 191.394 47.9473 174.847 59.7878C166.527 65.7404 159.622 71.5885 154.795 75.9498C152.38 78.1317 150.481 79.9447 149.182 81.217C148.532 81.8532 148.032 82.3545 147.692 82.6993C147.522 82.8717 147.391 83.005 147.302 83.0966C147.258 83.1424 147.224 83.1778 147.2 83.2023C147.188 83.2146 147.179 83.2242 147.172 83.231C147.169 83.2345 147.167 83.2373 147.165 83.2393C147.164 83.2403 147.163 83.2413 147.162 83.2419C147.161 83.2427 147.161 83.2434 149.329 85.317C151.497 87.3905 151.496 87.3908 151.496 87.391C151.496 87.3908 151.496 87.3908 151.497 87.3905C151.497 87.3898 151.499 87.3884 151.501 87.3863C151.505 87.3822 151.511 87.3753 151.52 87.3658C151.539 87.3467 151.568 87.3169 151.607 87.2767C151.685 87.1964 151.804 87.0744 151.962 86.9136C152.28 86.5921 152.756 86.1152 153.38 85.5042C154.628 84.282 156.468 82.5245 158.817 80.4019C163.519 76.1542 170.246 70.4577 178.338 64.6673C194.613 53.0223 216.027 41.2782 237.425 39.753L237.211 36.7606ZM149.329 85.317L147.117 83.2895C141.188 89.7568 133.308 99.703 124.031 110.685C114.68 121.755 103.744 134.086 91.4299 145.677C66.7226 168.934 36.8769 188.822 3.60266 190.012L3.70987 193.01L3.81707 196.008C39.3099 194.738 70.5126 173.607 95.5424 150.046C108.097 138.228 119.202 125.7 128.614 114.557C138.102 103.326 145.709 93.7042 151.54 87.3444L149.329 85.317ZM3.70987 193.01L3.60266 190.012C-38.3987 191.514 -86.725 181.888 -139.464 167.707C-165.809 160.623 -193.189 152.423 -221.375 143.94C-249.548 135.461 -278.524 126.701 -308.001 118.522C-425.814 85.8285 -552.305 62.1804 -669.976 102.663L-669 105.5L-668.024 108.337C-552.221 68.4966 -427.304 91.6417 -309.605 124.303C-280.203 132.462 -251.294 141.201 -223.104 149.685C-194.928 158.165 -167.466 166.391 -141.022 173.502C-88.1801 187.71 -39.1284 197.544 3.81707 196.008L3.70987 193.01ZM-669 105.5L-669.976 102.663C-679.301 105.871 -692.399 113.52 -707.999 122.895C-723.732 132.351 -742.269 143.73 -762.792 154.729C-803.883 176.75 -852.511 197 -901.5 197L-901.5 200L-901.5 203C-850.989 203 -801.284 182.164 -759.958 160.017C-739.273 148.932 -720.581 137.457 -704.908 128.038C-689.102 118.539 -676.616 111.293 -668.024 108.337L-669 105.5ZM-901.5 200L-901.5 197C-932.728 197 -971.548 193.238 -1004.74 178.899C-1037.82 164.607 -1065.15 139.901 -1074.07 97.8775L-1077 98.5001L-1079.93 99.1227C-1070.52 143.505 -1041.5 169.55 -1007.12 184.407C-972.84 199.216 -933.077 203 -901.5 203L-901.5 200Z" fill="url(#paint0_linear_594_579)"/>
</g>
<defs>
<linearGradient id="paint0_linear_594_579" x1="549.316" y1="109.314" x2="-1038.96" y2="118.298" gradientUnits="userSpaceOnUse">
<stop stop-color="#FBE1A8"/>
<stop offset="0.0974835" stop-color="#FBE2AA" stop-opacity="0.977428"/>
<stop offset="0.397718" stop-color="white" stop-opacity="0"/>
<stop offset="0.579067" stop-color="white" stop-opacity="0"/>
<stop offset="0.956355" stop-color="#FBE1A8"/>
</linearGradient>
<clipPath id="clip0_594_579">
<rect width="395" height="256" fill="white"/>
</clipPath>
</defs>
</svg>
