<svg width="439" height="256" viewBox="0 0 439 256" fill="none" xmlns="http://www.w3.org/2000/svg">
<g clip-path="url(#clip0_594_578)">
<path d="M1393.97 101.1L1391.82 103.196V103.196L1393.97 101.1ZM1282.21 36.7606L1282 33.7682V33.7682L1282.21 36.7606ZM1194.33 85.317L1192.16 83.2434C1192.15 83.2586 1192.13 83.274 1192.12 83.2895L1194.33 85.317ZM1048.71 193.01L1048.82 196.008V196.008L1048.71 193.01ZM376 105.5L375.024 102.663V102.663L376 105.5ZM143.5 200L143.5 203V203L143.5 200ZM1496.26 184.757L1496.21 181.757C1493.8 181.803 1490.71 181.041 1486.95 179.387C1483.23 177.749 1479.06 175.325 1474.57 172.274C1465.58 166.171 1455.54 157.73 1445.56 148.563C1425.59 130.223 1406.17 109.31 1396.12 99.0048L1393.97 101.1L1391.82 103.196C1401.73 113.351 1421.37 134.495 1441.5 152.982C1451.57 162.229 1461.86 170.895 1471.2 177.238C1475.87 180.409 1480.36 183.044 1484.53 184.879C1488.66 186.698 1492.68 187.825 1496.32 187.756L1496.26 184.757ZM1393.97 101.1L1396.12 99.0048C1386.12 88.761 1369.13 71.7083 1349 57.6117C1328.95 43.575 1305.29 32.1079 1282 33.7682L1282.21 36.7606L1282.42 39.753C1303.61 38.2431 1325.84 48.7158 1345.56 62.5265C1365.19 76.2774 1381.85 92.9796 1391.82 103.196L1393.97 101.1ZM1282.21 36.7606L1282 33.7682C1258.92 35.4131 1236.39 47.9473 1219.85 59.7878C1211.53 65.7404 1204.62 71.5885 1199.8 75.9498C1197.38 78.1317 1195.48 79.9447 1194.18 81.217C1193.53 81.8532 1193.03 82.3545 1192.69 82.6993C1192.52 82.8717 1192.39 83.005 1192.3 83.0966C1192.26 83.1424 1192.22 83.1778 1192.2 83.2023C1192.19 83.2146 1192.18 83.2242 1192.17 83.231C1192.17 83.2345 1192.17 83.2373 1192.16 83.2393C1192.16 83.2403 1192.16 83.2413 1192.16 83.2419C1192.16 83.2427 1192.16 83.2434 1194.33 85.317C1196.5 87.3905 1196.5 87.3908 1196.5 87.391C1196.5 87.3908 1196.5 87.3908 1196.5 87.3905C1196.5 87.3898 1196.5 87.3884 1196.5 87.3863C1196.5 87.3822 1196.51 87.3753 1196.52 87.3658C1196.54 87.3467 1196.57 87.3169 1196.61 87.2767C1196.68 87.1964 1196.8 87.0744 1196.96 86.9136C1197.28 86.5921 1197.76 86.1152 1198.38 85.5042C1199.63 84.282 1201.47 82.5245 1203.82 80.4019C1208.52 76.1542 1215.25 70.4577 1223.34 64.6673C1239.61 53.0223 1261.03 41.2782 1282.42 39.753L1282.21 36.7606ZM1194.33 85.317L1192.12 83.2895C1186.19 89.7568 1178.31 99.703 1169.03 110.685C1159.68 121.755 1148.74 134.086 1136.43 145.677C1111.72 168.934 1081.88 188.822 1048.6 190.012L1048.71 193.01L1048.82 196.008C1084.31 194.738 1115.51 173.607 1140.54 150.046C1153.1 138.228 1164.2 125.7 1173.61 114.557C1183.1 103.326 1190.71 93.7042 1196.54 87.3444L1194.33 85.317ZM1048.71 193.01L1048.6 190.012C1006.6 191.514 958.275 181.888 905.536 167.707C879.191 160.623 851.811 152.423 823.625 143.94C795.452 135.461 766.476 126.701 736.999 118.522C619.186 85.8285 492.695 62.1804 375.024 102.663L376 105.5L376.976 108.337C492.779 68.4966 617.696 91.6417 735.395 124.303C764.797 132.462 793.706 141.201 821.896 149.685C850.072 158.165 877.534 166.391 903.978 173.502C956.82 187.71 1005.87 197.544 1048.82 196.008L1048.71 193.01ZM376 105.5L375.024 102.663C365.699 105.871 352.601 113.52 337.001 122.895C321.268 132.351 302.731 143.73 282.208 154.729C241.117 176.75 192.489 197 143.5 197L143.5 200L143.5 203C194.011 203 243.716 182.164 285.042 160.017C305.727 148.932 324.419 137.457 340.092 128.038C355.898 118.539 368.384 111.293 376.976 108.337L376 105.5ZM143.5 200L143.5 197C112.272 197 73.4517 193.238 40.2625 178.899C7.18416 164.607 -20.1496 139.901 -29.0652 97.8775L-31.9999 98.5001L-34.9346 99.1227C-25.5184 143.505 3.49543 169.55 37.8829 184.407C72.1596 199.216 111.923 203 143.5 203L143.5 200Z" fill="url(#paint0_linear_594_578)"/>
</g>
<defs>
<linearGradient id="paint0_linear_594_578" x1="1594.32" y1="109.314" x2="6.03567" y2="118.298" gradientUnits="userSpaceOnUse">
<stop stop-color="#FBE1A8"/>
<stop offset="0.0974835" stop-color="#FBE2AA" stop-opacity="0.977428"/>
<stop offset="0.397718" stop-color="white" stop-opacity="0"/>
<stop offset="0.579067" stop-color="white" stop-opacity="0"/>
<stop offset="0.956355" stop-color="#FBE1A8"/>
</linearGradient>
<clipPath id="clip0_594_578">
<rect width="439" height="256" fill="white"/>
</clipPath>
</defs>
</svg>
