<svg width="32" height="32" viewBox="0 0 32 32" fill="none" xmlns="http://www.w3.org/2000/svg">
<path d="M16.0034 0.00470335C9.32443 0.00470335 7.37248 0.00940728 6.99149 0.0423388C5.62277 0.155247 4.76674 0.371655 3.84015 0.8374C3.12521 1.19494 2.56079 1.60423 2.00108 2.18289C0.985122 3.23669 0.368964 4.53514 0.147899 6.07351C0.0397187 6.82152 0.00679394 6.97677 0.00209044 10.7968C-0.00261306 12.0717 0.00209044 13.7465 0.00209044 15.9953C0.00209044 22.671 0.0114976 24.6233 0.0397186 25.0044C0.152603 26.3405 0.359556 27.1779 0.801685 28.0953C1.64832 29.8547 3.26632 31.172 5.17124 31.666C5.82973 31.8353 6.55877 31.9294 7.49477 31.9718C7.88986 31.9906 11.9302 32 15.9705 32C20.0108 32 24.0511 31.9953 24.4368 31.9765C25.5186 31.9247 26.1488 31.84 26.845 31.6613C28.764 31.1673 30.3491 29.8689 31.2145 28.0859C31.6472 27.192 31.8683 26.317 31.9671 25.0515C31.9906 24.7739 32 20.3799 32 15.9906C32 11.6013 31.9906 7.212 31.9671 6.93443C31.8683 5.6501 31.6472 4.78447 31.1957 3.8718C30.8288 3.12379 30.4196 2.56395 29.827 1.99471C28.7687 0.983239 27.4752 0.36695 25.9325 0.145838C25.1846 0.0376348 25.0341 0.0047045 21.2102 0H16.0034V0.00470335Z" fill="url(#paint0_radial_988_4876)"/>
<path d="M16.0034 0.00470335C9.32443 0.00470335 7.37248 0.00940728 6.99149 0.0423388C5.62277 0.155247 4.76674 0.371655 3.84015 0.8374C3.12521 1.19494 2.56079 1.60423 2.00108 2.18289C0.985122 3.23669 0.368964 4.53514 0.147899 6.07351C0.0397187 6.82152 0.00679394 6.97677 0.00209044 10.7968C-0.00261306 12.0717 0.00209044 13.7465 0.00209044 15.9953C0.00209044 22.671 0.0114976 24.6233 0.0397186 25.0044C0.152603 26.3405 0.359556 27.1779 0.801685 28.0953C1.64832 29.8547 3.26632 31.172 5.17124 31.666C5.82973 31.8353 6.55877 31.9294 7.49477 31.9718C7.88986 31.9906 11.9302 32 15.9705 32C20.0108 32 24.0511 31.9953 24.4368 31.9765C25.5186 31.9247 26.1488 31.84 26.845 31.6613C28.764 31.1673 30.3491 29.8689 31.2145 28.0859C31.6472 27.192 31.8683 26.317 31.9671 25.0515C31.9906 24.7739 32 20.3799 32 15.9906C32 11.6013 31.9906 7.212 31.9671 6.93443C31.8683 5.6501 31.6472 4.78447 31.1957 3.8718C30.8288 3.12379 30.4196 2.56395 29.827 1.99471C28.7687 0.983239 27.4752 0.36695 25.9325 0.145838C25.1846 0.0376348 25.0341 0.0047045 21.2102 0H16.0034V0.00470335Z" fill="url(#paint1_radial_988_4876)"/>
<path d="M16.0034 0.00470335C9.32443 0.00470335 7.37248 0.00940728 6.99149 0.0423388C5.62277 0.155247 4.76674 0.371655 3.84015 0.8374C3.12521 1.19494 2.56079 1.60423 2.00108 2.18289C0.985122 3.23669 0.368964 4.53514 0.147899 6.07351C0.0397187 6.82152 0.00679394 6.97677 0.00209044 10.7968C-0.00261306 12.0717 0.00209044 13.7465 0.00209044 15.9953C0.00209044 22.671 0.0114976 24.6233 0.0397186 25.0044C0.152603 26.3405 0.359556 27.1779 0.801685 28.0953C1.64832 29.8547 3.26632 31.172 5.17124 31.666C5.82973 31.8353 6.55877 31.9294 7.49477 31.9718C7.88986 31.9906 11.9302 32 15.9705 32C20.0108 32 24.0511 31.9953 24.4368 31.9765C25.5186 31.9247 26.1488 31.84 26.845 31.6613C28.764 31.1673 30.3491 29.8689 31.2145 28.0859C31.6472 27.192 31.8683 26.317 31.9671 25.0515C31.9906 24.7739 32 20.3799 32 15.9906C32 11.6013 31.9906 7.212 31.9671 6.93443C31.8683 5.6501 31.6472 4.78447 31.1957 3.8718C30.8288 3.12379 30.4196 2.56395 29.827 1.99471C28.7687 0.983239 27.4752 0.36695 25.9325 0.145838C25.1846 0.0376348 25.0341 0.0047045 21.2102 0H16.0034V0.00470335Z" fill="url(#paint2_radial_988_4876)"/>
<path d="M16.0034 0.00470335C9.32443 0.00470335 7.37248 0.00940728 6.99149 0.0423388C5.62277 0.155247 4.76674 0.371655 3.84015 0.8374C3.12521 1.19494 2.56079 1.60423 2.00108 2.18289C0.985122 3.23669 0.368964 4.53514 0.147899 6.07351C0.0397187 6.82152 0.00679394 6.97677 0.00209044 10.7968C-0.00261306 12.0717 0.00209044 13.7465 0.00209044 15.9953C0.00209044 22.671 0.0114976 24.6233 0.0397186 25.0044C0.152603 26.3405 0.359556 27.1779 0.801685 28.0953C1.64832 29.8547 3.26632 31.172 5.17124 31.666C5.82973 31.8353 6.55877 31.9294 7.49477 31.9718C7.88986 31.9906 11.9302 32 15.9705 32C20.0108 32 24.0511 31.9953 24.4368 31.9765C25.5186 31.9247 26.1488 31.84 26.845 31.6613C28.764 31.1673 30.3491 29.8689 31.2145 28.0859C31.6472 27.192 31.8683 26.317 31.9671 25.0515C31.9906 24.7739 32 20.3799 32 15.9906C32 11.6013 31.9906 7.212 31.9671 6.93443C31.8683 5.6501 31.6472 4.78447 31.1957 3.8718C30.8288 3.12379 30.4196 2.56395 29.827 1.99471C28.7687 0.983239 27.4752 0.36695 25.9325 0.145838C25.1846 0.0376348 25.0341 0.0047045 21.2102 0H16.0034V0.00470335Z" fill="url(#paint3_radial_988_4876)"/>
<path d="M16.0035 4.11621C12.7722 4.11621 12.3677 4.13032 11.0978 4.18678C9.83256 4.24323 8.96711 4.44552 8.20985 4.7372C7.42907 5.04299 6.76588 5.44758 6.10268 6.10621C5.43949 6.76484 5.03499 7.42818 4.72926 8.21383C4.43294 8.97125 4.23539 9.83218 4.17895 11.0977C4.12251 12.3679 4.1084 12.7725 4.1084 15.9998C4.1084 19.2271 4.12251 19.6316 4.17895 20.9019C4.23539 22.1674 4.43764 23.033 4.72926 23.7857C5.03499 24.5667 5.43949 25.23 6.10268 25.8933C6.76588 26.5567 7.42907 26.9613 8.20985 27.267C8.96711 27.5587 9.83256 27.761 11.0978 27.8175C12.3677 27.8739 12.7722 27.888 16.0035 27.888C19.2349 27.888 19.6394 27.8739 20.9093 27.8175C22.1745 27.761 23.04 27.5587 23.7972 27.267C24.578 26.9613 25.2412 26.5567 25.9044 25.8933C26.5676 25.2347 26.9721 24.5714 27.2778 23.7857C27.5695 23.0283 27.7717 22.1674 27.8281 20.9019C27.8846 19.6316 27.8987 19.2271 27.8987 15.9998C27.8987 12.7725 27.8846 12.3632 27.8281 11.0977C27.767 9.83218 27.5695 8.96655 27.2778 8.21383C26.9721 7.43288 26.5676 6.76955 25.9044 6.10621C25.2412 5.44288 24.5827 5.03829 23.7972 4.7372C23.04 4.44552 22.1745 4.24323 20.9093 4.18678C19.6347 4.13032 19.2349 4.11621 16.0035 4.11621ZM14.9359 6.25676C15.251 6.25676 15.6037 6.25676 16.0035 6.25676C19.1784 6.25676 19.5547 6.26617 20.8105 6.32733C21.9723 6.37907 22.5979 6.57196 23.0212 6.73661C23.5762 6.95302 23.9713 7.21177 24.3899 7.62577C24.8085 8.03976 25.0625 8.43964 25.2788 8.99477C25.4435 9.41347 25.6363 10.0439 25.6881 11.2012C25.7445 12.4526 25.7586 12.8289 25.7586 16.0045C25.7586 19.18 25.7445 19.5517 25.6881 20.8078C25.6363 21.9651 25.4435 22.5955 25.2788 23.0142C25.0625 23.5693 24.8038 23.9645 24.3899 24.3785C23.9713 24.7925 23.5762 25.0512 23.0212 25.2676C22.6026 25.4323 21.9723 25.6252 20.8105 25.6769C19.5547 25.7334 19.1784 25.7475 16.0035 25.7475C12.8287 25.7475 12.4524 25.7334 11.1966 25.6769C10.0348 25.6252 9.40924 25.4276 8.98593 25.2676C8.43091 25.0512 8.03582 24.7925 7.61721 24.3785C7.1986 23.9645 6.94461 23.5693 6.72825 23.0142C6.56362 22.5955 6.37078 21.9651 6.31904 20.8078C6.2626 19.5564 6.24849 19.18 6.24849 16.0045C6.24849 12.8289 6.2579 12.4573 6.31904 11.2012C6.37078 10.0439 6.56362 9.41347 6.72825 8.99477C6.94461 8.43964 7.2033 8.04447 7.61721 7.62577C8.03582 7.21177 8.43091 6.95302 8.98593 6.73661C9.40454 6.57196 10.0348 6.37907 11.1966 6.32733C12.2972 6.27087 12.7205 6.25676 14.9359 6.25676ZM22.3533 8.23265C21.5631 8.23265 20.9281 8.87246 20.9281 9.65811C20.9281 10.4438 21.5678 11.0836 22.3533 11.0836C23.1435 11.0836 23.7784 10.4438 23.7784 9.65811C23.7784 8.87246 23.1435 8.23265 22.3533 8.23265ZM16.0035 9.89804C12.6311 9.89804 9.8937 12.6314 9.8937 16.0045C9.8937 19.3776 12.6311 22.1109 16.0035 22.1109C19.376 22.1109 22.1134 19.3776 22.1134 16.0045C22.1134 12.6314 19.376 9.89804 16.0035 9.89804ZM16.0035 12.0433C18.1954 12.0433 19.9686 13.8169 19.9686 16.0045C19.9686 18.1921 18.1954 19.9657 16.0035 19.9657C13.8117 19.9657 12.0385 18.1921 12.0385 16.0045C12.0385 13.8169 13.8164 12.0433 16.0035 12.0433Z" fill="white"/>
<defs>
<radialGradient id="paint0_radial_988_4876" cx="0" cy="0" r="1" gradientTransform="matrix(-19.6753 5.55 3.99781 14.1781 30.9636 15.0038)" gradientUnits="userSpaceOnUse">
<stop stop-color="#FF005F"/>
<stop offset="1" stop-color="#FC01D8"/>
</radialGradient>
<radialGradient id="paint1_radial_988_4876" cx="0" cy="0" r="1" gradientUnits="userSpaceOnUse" gradientTransform="translate(8.49964 34.4702) rotate(-90) scale(25.5442 27.096)">
<stop stop-color="#FFCC00"/>
<stop offset="0.1242" stop-color="#FFCC00"/>
<stop offset="0.5672" stop-color="#FE4A05"/>
<stop offset="0.6942" stop-color="#FF0F3F"/>
<stop offset="1" stop-color="#FE0657" stop-opacity="0"/>
</radialGradient>
<radialGradient id="paint2_radial_988_4876" cx="0" cy="0" r="1" gradientTransform="matrix(5.30088 -9.13548 -11.8909 -6.90285 16.8075 31.5566)" gradientUnits="userSpaceOnUse">
<stop stop-color="#FFCC00"/>
<stop offset="1" stop-color="#FFCC00" stop-opacity="0"/>
</radialGradient>
<radialGradient id="paint3_radial_988_4876" cx="0" cy="0" r="1" gradientTransform="matrix(-19.4594 5.48063 1.86636 6.63125 4.3395 1.31073)" gradientUnits="userSpaceOnUse">
<stop stop-color="#780CFF"/>
<stop offset="1" stop-color="#820BFF" stop-opacity="0"/>
</radialGradient>
</defs>
</svg>
