<svg width="34" height="34" viewBox="0 0 34 34" fill="none" xmlns="http://www.w3.org/2000/svg">
<rect x="0.5" y="0.5" width="33" height="33" rx="9.5" stroke="white"/>
<path d="M28.9294 12.0733C28.916 11.0634 28.7269 10.0636 28.3708 9.11861C28.0619 8.32148 27.5901 7.59754 26.9857 6.99305C26.3812 6.38856 25.6572 5.91681 24.8601 5.60794C23.9272 5.25775 22.9417 5.0684 21.9454 5.04794C20.6628 4.99061 20.2561 4.97461 17.0001 4.97461C13.7441 4.97461 13.3268 4.97461 12.0534 5.04794C11.0576 5.06855 10.0726 5.2579 9.14009 5.60794C8.34284 5.9166 7.61879 6.38827 7.01427 6.99279C6.40975 7.5973 5.93808 8.32135 5.62943 9.11861C5.27854 10.0508 5.08959 11.0361 5.07076 12.0319C5.01343 13.3159 4.99609 13.7226 4.99609 16.9786C4.99609 20.2346 4.99609 20.6506 5.07076 21.9253C5.09076 22.9226 5.27876 23.9066 5.62943 24.8413C5.9386 25.6383 6.41062 26.362 7.01534 26.9663C7.62006 27.5706 8.34418 28.042 9.14143 28.3506C10.0713 28.7149 11.0566 28.9178 12.0548 28.9506C13.3388 29.0079 13.7454 29.0253 17.0014 29.0253C20.2574 29.0253 20.6748 29.0253 21.9481 28.9506C22.9443 28.931 23.9299 28.7421 24.8628 28.3919C25.6597 28.0827 26.3834 27.6108 26.9879 27.0064C27.5923 26.402 28.0642 25.6782 28.3734 24.8813C28.7241 23.9479 28.9121 22.9639 28.9321 21.9653C28.9894 20.6826 29.0068 20.2759 29.0068 17.0186C29.0041 13.7626 29.0041 13.3493 28.9294 12.0733ZM16.9921 23.1359C13.5868 23.1359 10.8281 20.3773 10.8281 16.9719C10.8281 13.5666 13.5868 10.8079 16.9921 10.8079C18.6269 10.8079 20.1947 11.4574 21.3507 12.6133C22.5067 13.7693 23.1561 15.3371 23.1561 16.9719C23.1561 18.6067 22.5067 20.1746 21.3507 21.3305C20.1947 22.4865 18.6269 23.1359 16.9921 23.1359ZM23.4014 12.0173C23.2126 12.0175 23.0256 11.9804 22.8512 11.9082C22.6767 11.8361 22.5182 11.7302 22.3847 11.5967C22.2512 11.4632 22.1453 11.3047 22.0731 11.1302C22.001 10.9557 21.9639 10.7687 21.9641 10.5799C21.9641 10.3913 22.0013 10.2045 22.0735 10.0302C22.1457 9.85585 22.2515 9.69747 22.3849 9.56407C22.5183 9.43066 22.6767 9.32483 22.851 9.25264C23.0253 9.18044 23.2121 9.14328 23.4008 9.14328C23.5894 9.14328 23.7762 9.18044 23.9505 9.25264C24.1249 9.32483 24.2832 9.43066 24.4166 9.56407C24.55 9.69747 24.6559 9.85585 24.7281 10.0302C24.8003 10.2045 24.8374 10.3913 24.8374 10.5799C24.8374 11.3746 24.1948 12.0173 23.4014 12.0173Z" fill="white"/>
<path d="M16.9923 20.9758C19.2036 20.9758 20.9963 19.1831 20.9963 16.9718C20.9963 14.7604 19.2036 12.9678 16.9923 12.9678C14.7809 12.9678 12.9883 14.7604 12.9883 16.9718C12.9883 19.1831 14.7809 20.9758 16.9923 20.9758Z" fill="white"/>
</svg>
