<svg width="32" height="32" viewBox="0 0 32 32" fill="none" xmlns="http://www.w3.org/2000/svg">
<g clip-path="url(#clip0_988_4887)">
<path d="M16.0004 4C12.7416 4 12.3331 4.02072 11.0533 4.0734C9.77606 4.13174 8.9055 4.33161 8.14231 4.6284C7.3532 4.93497 6.68129 5.34713 6.01422 6.0143C5.34713 6.68146 4.93884 7.34976 4.63224 8.13888C4.33553 8.90221 4.13184 9.7764 4.07358 11.0537C4.01505 12.3336 4 12.7422 4 16.0013C4 19.2605 4.01505 19.6689 4.07358 20.9488C4.13191 22.2262 4.33553 23.0968 4.63224 23.8601C4.93884 24.6492 5.34713 25.3175 6.01422 25.9847C6.68129 26.6518 7.3532 27.0636 8.14231 27.3704C8.9055 27.667 9.77606 27.8708 11.0533 27.9292C12.3331 27.9875 12.7416 27.9988 16.0004 27.9988C19.2592 27.9988 19.6678 27.98 20.9476 27.9292C22.2248 27.8708 23.099 27.667 23.8622 27.3704C24.6513 27.0636 25.3196 26.6518 25.9866 25.9847C26.6537 25.3175 27.062 24.6492 27.3686 23.8601C27.6653 23.0968 27.869 22.2262 27.9273 20.9488C27.9858 19.6689 28.0009 19.2605 28.0009 16.0013C28.0009 12.7422 27.9858 12.3336 27.9273 11.0537C27.8689 9.7764 27.6653 8.90221 27.3686 8.13888C27.062 7.34976 26.6537 6.68146 25.9866 6.0143C25.3196 5.34713 24.6513 4.93497 23.8622 4.6284C23.099 4.33161 22.2248 4.13174 20.9476 4.0734C19.6678 4.01505 19.2592 4 16.0004 4ZM16.0004 6.16128C19.2044 6.16128 19.583 6.18008 20.8484 6.23091C22.0182 6.28361 22.6565 6.48197 23.0794 6.64627C23.6395 6.86401 24.0378 7.12335 24.4577 7.54323C24.8776 7.9631 25.1369 8.36152 25.3545 8.9216C25.5187 9.34448 25.7164 9.98285 25.7698 11.1527C25.8274 12.4181 25.8396 12.797 25.8396 16.0011C25.8396 19.2054 25.8264 19.5842 25.7698 20.8495C25.7164 22.0195 25.5187 22.6541 25.3545 23.077C25.1369 23.6371 24.8776 24.0389 24.4577 24.459C24.0378 24.8788 23.6395 25.1382 23.0794 25.3559C22.6565 25.5196 22.0182 25.7144 20.8484 25.7677C19.5832 25.826 19.2046 25.8373 16.0004 25.8373C12.7962 25.8373 12.4176 25.8185 11.1525 25.7677C9.98263 25.715 9.348 25.5202 8.92517 25.3559C8.36506 25.1382 7.96306 24.8788 7.54321 24.459C7.12337 24.0389 6.86409 23.6371 6.6464 23.077C6.48212 22.6541 6.28816 22.0195 6.23475 20.8495C6.17716 19.5842 6.16493 19.2054 6.16493 16.0011C6.16493 12.797 6.17811 12.4181 6.23475 11.1527C6.2882 9.98285 6.48212 9.34448 6.6464 8.9216C6.86409 8.36152 7.12337 7.9631 7.54321 7.54323C7.96306 7.12335 8.36506 6.86401 8.92517 6.64627C9.348 6.48254 9.98263 6.28436 11.1525 6.23091C12.4178 6.17257 12.7965 6.16128 16.0004 6.16128ZM22.4068 8.15356C21.6116 8.15356 20.966 8.79908 20.966 9.59441C20.966 10.3897 21.6116 11.0353 22.4068 11.0353C23.202 11.0353 23.8475 10.3897 23.8475 9.59441C23.8475 8.79908 23.202 8.15356 22.4068 8.15356ZM16.0004 9.837C12.5974 9.837 9.84036 12.5981 9.84036 16.0013C9.84036 19.4047 12.5974 22.1618 16.0004 22.1618C19.4034 22.1618 22.1642 19.4047 22.1642 16.0013C22.1642 12.5981 19.4034 9.837 16.0004 9.837ZM16.0004 12.002C18.2094 12.002 19.9993 13.7922 19.9993 16.0013C19.9993 18.2105 18.2094 20.0005 16.0004 20.0005C13.7914 20.0005 12.0015 18.2105 12.0015 16.0013C12.0015 13.7922 13.7914 12.002 16.0004 12.002Z" fill="white"/>
<path d="M21.21 0.25C25.0366 0.254708 25.1694 0.288353 25.8965 0.393555H25.8975C27.2982 0.594391 28.4797 1.12906 29.4609 1.99707L29.6543 2.17578C30.2254 2.72442 30.6178 3.25987 30.9717 3.98145V3.98242C31.406 4.86037 31.6209 5.6936 31.7178 6.95312V6.95508C31.7284 7.08044 31.7369 8.2308 31.7422 9.92188C31.7475 11.602 31.75 13.796 31.75 15.9902C31.75 18.1848 31.7475 20.381 31.7422 22.0625C31.7369 23.7543 31.7284 24.9046 31.7178 25.0303V25.0322C31.6209 26.2737 31.4055 27.1167 30.9893 27.9766C30.1558 29.6937 28.63 30.9433 26.7822 31.4189C26.1083 31.592 25.4962 31.6753 24.4248 31.7266C24.0472 31.745 20.0176 31.75 15.9707 31.75C11.925 31.75 7.895 31.7401 7.50684 31.7217H7.50586C6.58055 31.6798 5.86976 31.5875 5.2334 31.4238H5.23438C3.39962 30.948 1.84162 29.6791 1.02734 27.9873V27.9863C0.655145 27.214 0.453758 26.5008 0.334961 25.4541L0.289062 24.9834C0.261888 24.6083 0.251953 22.6652 0.251953 15.9951C0.251953 13.7453 0.247252 12.0712 0.251953 10.7969C0.256661 6.97408 0.290318 6.83671 0.395508 6.10938C0.596271 4.71228 1.13085 3.5265 2.00195 2.54883L2.18066 2.35645C2.65278 1.86837 3.12671 1.50743 3.7002 1.19336L3.95215 1.06055C4.84247 0.613032 5.66542 0.402094 7.01172 0.291016H7.0127C7.3794 0.259318 9.31247 0.254883 16.0029 0.254883H16.2529V0.25H21.21Z" stroke="white" stroke-width="0.5"/>
</g>
<defs>
<clipPath id="clip0_988_4887">
<rect width="32" height="32" fill="white"/>
</clipPath>
</defs>
</svg>
