<svg width="28" height="28" viewBox="0 0 28 28" fill="none" xmlns="http://www.w3.org/2000/svg">
<g clip-path="url(#clip0_951_4828)">
<path d="M4.9123 0H23.0877C25.8002 0 28 2.19975 28 4.9123V23.0877C28 25.8002 25.8002 28 23.0877 28H4.9123C2.1998 28 0 25.8002 0 23.0877V4.9123C0 2.19975 2.1998 0 4.9123 0Z" fill="black"/>
<path d="M28 19.3204V21.9757C27.8323 21.9918 27.6601 22 27.4833 22C24.3271 22 22.5502 19.3855 22.4736 16.1139C22.4713 15.9875 22.4722 15.8618 22.475 15.737C22.4767 15.6591 22.4798 15.5815 22.4838 15.5042C22.4857 15.4629 22.4877 15.424 22.4909 15.3808C22.494 15.3375 22.4971 15.2942 22.5008 15.2509C22.6144 13.8064 23.082 12.5211 23.8536 11.57C24.333 10.9797 24.9091 10.5299 25.5624 10.229C26.1362 9.94176 26.9427 9.78312 27.6001 9.78312H27.6285C27.7524 9.78313 27.8763 9.78725 28 9.79546V10.526C27.8694 10.4904 27.7296 10.4713 27.5809 10.4688C26.2513 10.4961 25.4589 12.08 25.3602 14.2746H28V14.893H25.3006L25.2998 14.8936C25.178 17.0318 26.3548 18.8388 28 19.3204ZM22.6061 6.18359L22.6293 6.1785V6H17.8951L13.4992 16.2753L9.10339 6H4.00172V6.1785L4.02457 6.18359C4.88869 6.37756 5.32746 6.66685 5.32746 7.71012V19.9239C5.32746 20.9671 4.88702 21.2564 4.02291 21.4504L4 21.4555V21.6345H7.46134V21.456L7.43843 21.451C6.57432 21.257 6.1356 20.9677 6.1356 19.9244V8.41859L11.7825 21.6345H12.1029L17.9143 8.04999V20.226C17.8403 21.0501 17.4056 21.3045 16.6231 21.4802L16.5999 21.4856V21.6626H22.6293V21.4856L22.6061 21.4802C21.8229 21.3045 21.3777 21.0501 21.3036 20.226L21.2996 7.71012H21.3036C21.3036 6.66685 21.7423 6.37756 22.6061 6.18359Z" fill="white"/>
</g>
<rect x="0.5" y="0.5" width="27" height="27" rx="3.5" stroke="white"/>
<defs>
<clipPath id="clip0_951_4828">
<rect width="28" height="28" rx="4" fill="white"/>
</clipPath>
</defs>
</svg>
