<svg width="1440" height="256" viewBox="0 0 1440 256" fill="none" xmlns="http://www.w3.org/2000/svg">
<g clip-path="url(#clip0_205_161)">
<rect width="1440" height="256" fill="white"/>
<path d="M190.899 230.226C174.942 243.738 108.815 219.122 86.7018 211.908C64.5882 204.694 12.8097 188.854 -15.5224 215.744C-43.8545 242.634 -53.3584 306.158 -53.3584 306.158" stroke="url(#paint0_linear_205_161)" stroke-width="12"/>
<path d="M190.899 230.226C174.942 243.738 108.815 219.122 86.7018 211.908C64.5882 204.694 12.8097 188.854 -15.5224 215.744C-43.8545 242.634 -53.3584 306.158 -53.3584 306.158" stroke="url(#paint1_linear_205_161)" stroke-width="12"/>
<path d="M1393.94 104.151L1389.64 108.337L1393.94 104.151ZM1194.1 88.7105L1189.76 84.5679C1189.58 84.7585 1189.41 84.9609 1189.25 85.1737L1194.1 88.7105ZM1048.1 197.065L1049.91 202.786L1049.91 202.786L1048.1 197.065ZM366.1 120.565L363.813 115.018L366.1 120.565ZM1496.18 187.893L1496.06 181.895C1494.27 181.932 1491.63 181.357 1488.07 179.789C1484.57 178.251 1480.57 175.934 1476.17 172.942C1467.36 166.957 1457.45 158.62 1447.52 149.481C1427.64 131.192 1408.36 110.362 1398.24 99.9654L1393.94 104.151L1389.64 108.337C1399.47 118.432 1419.2 139.726 1439.4 158.312C1449.5 167.611 1459.9 176.4 1469.42 182.867C1474.18 186.101 1478.84 188.842 1483.24 190.774C1487.56 192.675 1492.04 193.982 1496.31 193.892L1496.18 187.893ZM1393.94 104.151L1398.24 99.9654C1388.23 89.6923 1371.09 72.4375 1350.72 58.158C1330.52 43.9978 1306.12 32.0378 1281.74 33.8279L1282.18 39.8118L1282.62 45.7957C1302.77 44.3163 1324.28 54.2807 1343.83 67.9848C1363.22 81.5697 1379.69 98.1194 1389.64 108.337L1393.94 104.151ZM1282.18 39.8118L1281.74 33.8279C1257.8 35.586 1234.66 48.6038 1217.94 60.6137C1209.49 66.6838 1202.48 72.641 1197.57 77.0831C1195.12 79.3067 1193.18 81.1572 1191.86 82.4613C1191.19 83.1135 1190.68 83.6295 1190.32 83.9877C1190.15 84.1668 1190.01 84.3065 1189.92 84.4041C1189.87 84.4529 1189.83 84.4911 1189.81 84.5186C1189.79 84.5323 1189.78 84.5433 1189.78 84.5515C1189.77 84.5556 1189.77 84.5591 1189.77 84.5618C1189.76 84.5632 1189.76 84.5647 1189.76 84.5654C1189.76 84.5667 1189.76 84.5679 1194.1 88.7105C1198.44 92.853 1198.44 92.8538 1198.44 92.8545C1198.44 92.8545 1198.44 92.855 1198.44 92.855C1198.44 92.8549 1198.44 92.8542 1198.44 92.8528C1198.44 92.85 1198.45 92.8444 1198.46 92.8362C1198.47 92.8197 1198.5 92.7925 1198.54 92.7549C1198.61 92.6796 1198.72 92.5627 1198.88 92.4068C1199.18 92.095 1199.65 91.6275 1200.26 91.0256C1201.49 89.8215 1203.3 88.0818 1205.63 85.9765C1210.28 81.761 1216.94 76.1066 1224.94 70.3607C1241.12 58.7387 1262.03 47.3072 1282.62 45.7957L1282.18 39.8118ZM1194.1 88.7105L1189.25 85.1737C1169.97 111.602 1114.18 169.884 1046.29 191.344L1048.1 197.065L1049.91 202.786C1121.22 180.246 1178.9 119.722 1198.95 92.2472L1194.1 88.7105ZM1048.1 197.065L1046.29 191.344C1036.76 194.357 1022.76 194.394 1004.38 191.736C986.154 189.102 964.372 183.945 939.67 177.213C914.985 170.486 887.596 162.247 858.148 153.486C828.732 144.734 797.315 135.479 764.711 126.768C634.689 92.0287 484.118 65.4203 363.813 115.018L366.1 120.565L368.387 126.112C484.582 78.2088 631.511 103.6 761.614 138.361C794.042 147.025 825.32 156.239 854.726 164.987C884.101 173.726 911.661 182.018 936.515 188.791C961.352 195.559 983.699 200.871 1002.66 203.612C1021.45 206.329 1037.69 206.648 1049.91 202.786L1048.1 197.065ZM366.1 120.565L363.813 115.018C318.656 133.634 281.843 161.602 252.581 184.683C237.837 196.312 225.222 206.529 214.22 213.967C203.01 221.546 194.661 225.375 188.416 225.568L188.601 231.565L188.785 237.562C198.79 237.254 209.673 231.527 220.941 223.909C232.416 216.151 245.525 205.532 260.013 194.105C289.215 171.071 324.902 144.039 368.387 126.112L366.1 120.565Z" fill="url(#paint2_linear_205_161)"/>
</g>
<defs>
<linearGradient id="paint0_linear_205_161" x1="-62.1537" y1="263.22" x2="191.937" y2="253.559" gradientUnits="userSpaceOnUse">
<stop offset="0.341368" stop-color="#F5F5F5" stop-opacity="0.19"/>
</linearGradient>
<linearGradient id="paint1_linear_205_161" x1="61.2103" y1="199.382" x2="64.8095" y2="295.29" gradientUnits="userSpaceOnUse">
<stop stop-color="#FBE1A8"/>
<stop offset="1" stop-color="white" stop-opacity="0"/>
</linearGradient>
<linearGradient id="paint2_linear_205_161" x1="1373.15" y1="77.0907" x2="323.1" y2="166.065" gradientUnits="userSpaceOnUse">
<stop stop-color="#FBE1A8"/>
<stop offset="1" stop-color="white" stop-opacity="0"/>
</linearGradient>
<clipPath id="clip0_205_161">
<rect width="1440" height="256" fill="white"/>
</clipPath>
</defs>
</svg>
