<svg width="1440" height="256" viewBox="0 0 1440 256" fill="none" xmlns="http://www.w3.org/2000/svg">
<g clip-path="url(#clip0_354_7)">
<rect width="1440" height="256" fill="white"/>
<path d="M1393.97 101.1L1389.67 105.291L1389.67 105.291L1393.97 101.1ZM1194.33 85.3164L1189.99 81.1692C1189.96 81.1997 1189.93 81.2304 1189.9 81.2615L1194.33 85.3164ZM1048.71 193.009L1048.92 199.005L1048.92 199.005L1048.71 193.009ZM367.333 115.422L369.285 121.096L369.285 121.096L367.333 115.422ZM190.255 225.689L191.406 231.578L191.406 231.578L190.255 225.689ZM1496.26 184.756L1496.15 178.757C1494.36 178.791 1491.72 178.212 1488.16 176.641C1484.66 175.101 1480.65 172.783 1476.25 169.792C1467.44 163.809 1457.53 155.48 1447.59 146.353C1427.7 128.087 1408.39 107.289 1398.26 96.9086L1393.97 101.1L1389.67 105.291C1399.51 115.37 1419.26 136.63 1439.47 155.192C1449.59 164.478 1459.99 173.256 1469.51 179.719C1474.27 182.951 1478.93 185.69 1483.32 187.624C1487.64 189.526 1492.12 190.836 1496.38 190.755L1496.26 184.756ZM1393.97 101.1L1398.26 96.9086C1388.25 86.651 1371.1 69.423 1350.72 55.1538C1330.51 41.0041 1306.13 29.0399 1281.78 30.7753L1282.21 36.7601L1282.64 42.7449C1302.76 41.3102 1324.27 51.2857 1343.84 64.9834C1363.23 78.5614 1379.71 95.0883 1389.67 105.291L1393.97 101.1ZM1282.21 36.7601L1281.78 30.7753C1257.87 32.4801 1234.78 45.4093 1218.1 57.3475C1209.67 63.3811 1202.67 69.3051 1197.78 73.7231C1195.33 75.9347 1193.41 77.7755 1192.08 79.0728C1191.42 79.7217 1190.91 80.2351 1190.55 80.5915C1190.38 80.7698 1190.24 80.9088 1190.15 81.006C1190.1 81.0546 1190.06 81.0927 1190.04 81.12C1190.03 81.1337 1190.01 81.1446 1190.01 81.1529C1190 81.157 1190 81.1604 1190 81.1631C1190 81.1645 1189.99 81.166 1189.99 81.1667C1189.99 81.1681 1189.99 81.1692 1194.33 85.3164C1198.66 89.4635 1198.66 89.4643 1198.66 89.465C1198.66 89.465 1198.66 89.4655 1198.66 89.4655C1198.66 89.4654 1198.66 89.4647 1198.66 89.4633C1198.67 89.4606 1198.67 89.4551 1198.68 89.4469C1198.69 89.4306 1198.72 89.4035 1198.76 89.3661C1198.83 89.2914 1198.94 89.1752 1199.1 89.0202C1199.4 88.7103 1199.87 88.2455 1200.48 87.6472C1201.7 86.45 1203.51 84.7203 1205.83 82.6274C1210.47 78.4364 1217.1 72.8157 1225.08 67.1066C1241.22 55.5592 1262.08 44.2103 1282.64 42.7449L1282.21 36.7601ZM1194.33 85.3164L1189.9 81.2615C1183.93 87.7826 1175.91 97.8911 1166.74 108.748C1157.42 119.782 1146.56 132.014 1134.37 143.492C1109.83 166.597 1080.66 185.862 1048.49 187.013L1048.71 193.009L1048.92 199.005C1085.52 197.696 1117.41 175.942 1142.6 152.23C1155.27 140.298 1166.46 127.671 1175.9 116.492C1185.5 105.136 1192.97 95.6772 1198.75 89.3712L1194.33 85.3164ZM1048.71 193.009L1048.49 187.013C1006.91 188.5 958.359 179.573 904.842 166.33C878.13 159.72 850.312 152.07 821.609 144.167C792.932 136.27 763.384 128.123 733.328 120.555C613.296 90.3305 483.909 68.9705 365.381 109.749L367.333 115.422L369.285 121.096C484.23 81.5506 610.584 102.022 730.398 132.191C760.303 139.722 789.723 147.833 818.424 155.736C847.099 163.632 875.07 171.324 901.96 177.978C955.648 191.264 1005.56 200.556 1048.92 199.005L1048.71 193.009ZM367.333 115.422L365.381 109.749C355.2 113.251 344.728 121.284 333.805 130.74C328.263 135.538 322.399 140.892 316.254 146.45C310.082 152.031 303.578 157.863 296.641 163.729C268.892 187.194 234.518 210.929 189.105 219.801L190.255 225.689L191.406 231.578C239.749 222.134 275.997 196.9 304.389 172.892C311.487 166.89 318.114 160.947 324.303 155.35C330.518 149.729 336.245 144.5 341.659 139.813C352.648 130.3 361.549 123.757 369.285 121.096L367.333 115.422ZM190.255 225.689L189.105 219.801C158.869 225.707 84.0916 230.572 27.7599 216.917C-0.572254 210.049 -22.6969 198.856 -33.0585 182.315C-43.0056 166.436 -43.2905 143.489 -22.7089 109.725L-27.8321 106.602L-32.9553 103.479C-54.7076 139.164 -56.6035 167.333 -43.228 188.686C-30.267 209.376 -4.13547 221.532 24.9328 228.579C83.4018 242.753 160.002 237.713 191.406 231.578L190.255 225.689Z" fill="url(#paint0_linear_354_7)"/>
</g>
<defs>
<linearGradient id="paint0_linear_354_7" x1="1594.32" y1="109.317" x2="-277.034" y2="113.033" gradientUnits="userSpaceOnUse">
<stop stop-color="#FBE1A8"/>
<stop offset="0.0974835" stop-color="#FBE2AA" stop-opacity="0.977428"/>
<stop offset="0.397718" stop-color="white" stop-opacity="0"/>
<stop offset="0.579067" stop-color="white" stop-opacity="0"/>
<stop offset="0.956355" stop-color="#FBE1A8"/>
</linearGradient>
<clipPath id="clip0_354_7">
<rect width="1440" height="256" fill="white"/>
</clipPath>
</defs>
</svg>
