<svg width="127" height="33" viewBox="0 0 127 33" fill="none" xmlns="http://www.w3.org/2000/svg">
<path d="M8.11977 8.2401C7.71977 7.6401 8.71977 7.0401 9.11977 7.6801C9.15977 7.7201 9.07977 7.6001 8.99977 7.6001C8.83977 7.5601 8.67977 7.6401 8.67977 7.6401C8.67977 7.6401 8.71977 7.6401 8.75977 7.5201C8.83977 7.4001 8.87977 7.3201 8.87977 7.2801C9.11977 6.7201 9.23977 6.0801 9.27977 5.4801C9.39977 4.3601 9.47977 2.4801 8.55977 1.7201C8.27977 1.4801 7.83977 1.4801 7.31977 1.6801C6.27977 2.0401 5.39977 2.8401 4.63977 3.5601C2.43977 5.6401 1.39977 9.0401 1.95977 12.0401C2.23977 13.7601 3.31977 14.9601 4.23977 16.4001C5.15977 17.7601 6.03977 19.1601 6.71977 20.6401C7.63977 22.7601 7.87977 25.0001 6.71977 27.0801C5.95977 28.4801 4.95977 29.9201 3.79977 31.0001C3.23977 31.5201 2.51977 32.0801 1.71977 32.1201C0.279766 32.1601 -0.000234604 30.7201 0.159765 29.6001C0.599766 26.7601 2.51977 24.1201 4.63977 22.3201C7.11977 20.2401 10.0398 18.4001 13.2398 17.2001C13.9598 16.9601 14.2398 18.0401 13.5598 18.3201C9.87977 19.6801 6.51977 22.0801 3.95977 24.7201C2.83977 25.9201 1.91977 27.4401 1.47977 29.0401C1.35977 29.3601 1.27977 29.7201 1.27977 30.0401C1.23977 30.2001 1.23977 30.3601 1.23977 30.5201C1.23977 30.6401 1.23977 30.3601 1.23977 30.5201C1.27977 30.7201 1.31977 30.7601 1.39977 30.8401C1.47977 30.9601 1.51977 30.9601 1.71977 30.9601C1.91977 30.9201 2.23977 30.8001 2.43977 30.6401C3.63977 29.8001 4.51977 28.4401 5.27977 27.2001C5.91977 26.2001 6.39977 25.2001 6.39977 24.0001C6.35977 22.7601 5.87977 21.5201 5.31977 20.4401C4.51977 18.7601 3.43977 17.2401 2.39977 15.7201C1.51977 14.4401 0.919765 13.2001 0.719766 11.6401C0.399765 8.6801 1.35977 5.3201 3.43977 3.1201C4.59977 1.9201 6.59977 9.67979e-05 8.47977 0.440096C9.83977 0.760097 10.2798 2.2001 10.4398 3.4001C10.5998 4.7201 10.4798 6.1201 10.0798 7.3601C9.79977 8.2001 8.91977 9.4401 8.11977 8.2401ZM17.8557 17.9601C17.6557 18.6401 16.5757 18.3601 16.7757 17.6401C16.8957 17.3601 16.8557 17.3201 16.5357 17.2801C16.3357 17.2401 16.0957 17.2801 15.8557 17.2801C14.8957 17.3601 14.1357 17.8401 13.4957 18.5201C12.6557 19.3601 11.6557 20.9201 11.9357 22.2401C12.0957 23.0801 13.7357 21.7201 14.0557 21.4401C14.9357 20.6801 15.8157 19.7601 16.4157 18.7601C16.7357 18.1601 17.5357 18.5601 17.4557 19.2001C17.3357 19.8001 16.7757 22.6401 17.5357 23.0001C18.9757 23.6401 22.6957 19.2401 23.3357 18.0401C23.9357 16.9601 24.7357 17.6001 24.5357 18.1601C23.9357 19.7601 18.6157 26.3201 16.4957 23.5601C15.5357 22.3201 16.0957 20.2401 16.3357 18.8801C16.6957 19.0401 17.0557 19.1601 17.3757 19.3201C16.6157 20.6401 15.4557 21.8401 14.2557 22.7201C13.4557 23.3201 11.9357 24.1601 11.0957 23.2401C10.2557 22.2801 10.8157 20.5201 11.2557 19.5201C12.0957 17.8401 13.7357 16.3601 15.6157 16.1601C16.8157 16.0401 18.3757 16.4001 17.8557 17.9601ZM27.0398 5.0801C26.4798 5.5601 25.6798 4.7601 26.2398 4.2801C26.5598 4.0001 27.0398 3.8801 27.3998 4.2801C27.5998 4.5601 27.5998 5.0001 27.5598 5.3601C27.4798 6.6001 27.1598 7.8401 26.8798 9.0401C26.4798 10.8801 25.9998 12.7201 25.5198 14.5201C24.5598 18.3201 23.5198 22.1201 22.7598 25.9601C22.3598 25.8801 21.9998 25.7601 21.6398 25.6801C22.5198 23.5601 23.5998 21.5201 24.9998 19.7201C25.6798 18.8401 26.7998 17.4001 28.1198 17.4801C29.5198 17.5601 29.4398 19.2401 29.3198 20.2001C29.2398 20.8401 29.0798 21.5201 29.1198 22.1601C29.1198 22.5601 29.2798 22.7201 29.6798 22.5201C30.3998 22.2001 30.9198 21.4801 31.3598 20.8801C32.0798 19.9201 32.6798 18.8801 33.2398 17.8401C33.5998 17.2001 34.5598 17.7601 34.1998 18.4001C33.5998 19.5601 32.9198 20.7201 32.1198 21.7601C31.5998 22.4001 31.0398 23.0801 30.3198 23.4801C29.3198 24.0401 28.1198 23.6401 27.9998 22.4001C27.9598 21.8001 28.0798 21.2001 28.1598 20.5601C28.1998 20.0401 28.3998 19.3201 28.1998 18.8001C28.0798 18.4401 27.6798 18.6801 27.3998 18.8801C26.7198 19.3201 26.1598 20.0001 25.6798 20.6401C24.4798 22.2801 23.5198 24.0801 22.7598 25.9601C22.4798 26.6401 21.5198 26.4001 21.6398 25.6801C21.9998 23.8801 22.4398 22.0801 22.8798 20.2801C23.7598 16.8001 24.7198 13.3201 25.5598 9.8001C25.8398 8.5601 26.1598 7.2801 26.3598 6.0001C26.3998 5.6801 26.4398 5.3201 26.4398 4.9601C26.4398 4.8001 26.4398 4.9201 26.4398 4.9201C26.4798 4.8801 26.4398 4.9201 26.4798 4.9201C26.7198 5.1201 26.9998 5.1201 27.0398 5.0801ZM40.0063 17.4401C40.2863 17.5201 40.5263 17.8401 40.4063 18.1201C39.5663 20.2001 36.9263 23.9601 34.5663 24.4401C33.4063 24.6801 32.8463 23.8801 32.7263 22.9201C32.5663 21.7201 32.6863 20.4801 32.8463 19.2801C32.9663 18.2401 33.2463 17.2001 33.5663 16.2401C33.7663 15.5201 34.8463 15.8401 34.6463 16.5201C34.2463 17.8401 33.2063 23.7601 34.5663 23.2401C36.4463 22.4801 38.4863 19.8001 39.3263 17.8401C39.4463 17.5601 39.6863 17.3201 40.0063 17.4401ZM34.5663 14.5601C34.4463 14.6001 34.2863 14.5201 34.1663 14.4001C34.0863 14.3201 34.0063 14.1601 34.0063 14.0001C34.0063 13.8001 34.0463 13.5601 34.1263 13.3601C34.1663 13.2001 34.2063 13.0401 34.2463 12.8801C34.2863 12.7201 34.4063 12.6001 34.5263 12.5201C34.6463 12.4401 34.8063 12.4401 34.9663 12.4801C35.0863 12.5201 35.2063 12.6001 35.2863 12.7201C35.3663 12.8401 35.3663 13.0401 35.3263 13.1601C35.2863 13.4401 35.1663 13.6801 35.1263 13.9601C35.1263 14.0001 35.1263 14.0001 35.1263 14.0001C35.1263 14.1601 35.0863 14.2801 34.9663 14.4001C34.8863 14.5201 34.7263 14.5601 34.5663 14.5601ZM40.4182 18.2001C39.8182 18.6401 39.2182 17.7601 39.8182 17.3601C43.4182 14.8801 45.0982 6.6401 44.6982 3.8001C44.5382 2.5601 43.6982 5.3201 43.6582 5.4801C42.6182 8.6401 41.7782 11.9201 41.0582 15.2001C40.6582 16.9201 40.2982 18.6801 40.0982 20.4401C39.9382 21.5601 39.7382 22.8801 40.0582 23.9601C40.3382 24.9201 42.4982 23.1201 42.8182 22.8401C44.6582 21.2401 45.7382 19.8401 46.9782 17.7601C47.3382 17.1201 48.2582 17.6401 47.8582 18.2801C46.3782 20.8001 44.9782 22.8401 42.5382 24.4801C41.2982 25.3201 39.4582 26.0401 38.9382 24.1601C38.6182 22.7601 38.8582 21.1601 39.0582 19.7601C39.3382 17.7601 39.7382 15.7601 40.2182 13.8001C40.9782 10.5601 41.7382 7.2401 42.8982 4.1601C43.1782 3.4401 43.6182 2.4801 44.4182 2.2401C45.4982 1.9601 45.7782 3.2401 45.8182 4.0001C45.9782 7.5601 44.0982 15.4001 40.4182 18.2001ZM60.5807 8.2401C60.1807 7.6401 61.1807 7.0401 61.5807 7.6801C61.6207 7.7201 61.5407 7.6001 61.4607 7.6001C61.3007 7.5601 61.1407 7.6401 61.1407 7.6401C61.1407 7.6401 61.1807 7.6401 61.2207 7.5201C61.3007 7.4001 61.3407 7.3201 61.3407 7.2801C61.5807 6.7201 61.7007 6.0801 61.7407 5.4801C61.8607 4.3601 61.9407 2.4801 61.0207 1.7201C60.7407 1.4801 60.3007 1.4801 59.7807 1.6801C58.7407 2.0401 57.8607 2.8401 57.1007 3.5601C54.9007 5.6401 53.8607 9.0401 54.4207 12.0401C54.7007 13.7601 55.7807 14.9601 56.7007 16.4001C57.6207 17.7601 58.5007 19.1601 59.1807 20.6401C60.1007 22.7601 60.3407 25.0001 59.1807 27.0801C58.4207 28.4801 57.4207 29.9201 56.2607 31.0001C55.7007 31.5201 54.9807 32.0801 54.1807 32.1201C52.7407 32.1601 52.4607 30.7201 52.6207 29.6001C53.0607 26.7601 54.9807 24.1201 57.1007 22.3201C59.5807 20.2401 62.5007 18.4001 65.7007 17.2001C66.4207 16.9601 66.7007 18.0401 66.0207 18.3201C62.3407 19.6801 58.9807 22.0801 56.4207 24.7201C55.3007 25.9201 54.3807 27.4401 53.9407 29.0401C53.8207 29.3601 53.7407 29.7201 53.7407 30.0401C53.7007 30.2001 53.7007 30.3601 53.7007 30.5201C53.7007 30.6401 53.7007 30.3601 53.7007 30.5201C53.7407 30.7201 53.7807 30.7601 53.8607 30.8401C53.9407 30.9601 53.9807 30.9601 54.1807 30.9601C54.3807 30.9201 54.7007 30.8001 54.9007 30.6401C56.1007 29.8001 56.9807 28.4401 57.7407 27.2001C58.3807 26.2001 58.8607 25.2001 58.8607 24.0001C58.8207 22.7601 58.3407 21.5201 57.7807 20.4401C56.9807 18.7601 55.9007 17.2401 54.8607 15.7201C53.9807 14.4401 53.3807 13.2001 53.1807 11.6401C52.8607 8.6801 53.8207 5.3201 55.9007 3.1201C57.0607 1.9201 59.0607 9.67979e-05 60.9407 0.440096C62.3007 0.760097 62.7407 2.2001 62.9007 3.4001C63.0607 4.7201 62.9407 6.1201 62.5407 7.3601C62.2607 8.2001 61.3807 9.4401 60.5807 8.2401ZM70.3166 17.9601C70.1166 18.6401 69.0366 18.3601 69.2366 17.6401C69.3566 17.3601 69.3166 17.3201 68.9966 17.2801C68.7966 17.2401 68.5566 17.2801 68.3166 17.2801C67.3566 17.3601 66.5966 17.8401 65.9566 18.5201C65.1166 19.3601 64.1166 20.9201 64.3966 22.2401C64.5566 23.0801 66.1966 21.7201 66.5166 21.4401C67.3966 20.6801 68.2766 19.7601 68.8766 18.7601C69.1966 18.1601 69.9966 18.5601 69.9166 19.2001C69.7966 19.8001 69.2366 22.6401 69.9966 23.0001C71.4366 23.6401 75.1566 19.2401 75.7966 18.0401C76.3966 16.9601 77.1966 17.6001 76.9966 18.1601C76.3966 19.7601 71.0766 26.3201 68.9566 23.5601C67.9966 22.3201 68.5566 20.2401 68.7966 18.8801C69.1566 19.0401 69.5166 19.1601 69.8366 19.3201C69.0766 20.6401 67.9166 21.8401 66.7166 22.7201C65.9166 23.3201 64.3966 24.1601 63.5566 23.2401C62.7166 22.2801 63.2766 20.5201 63.7166 19.5201C64.5566 17.8401 66.1966 16.3601 68.0766 16.1601C69.2766 16.0401 70.8366 16.4001 70.3166 17.9601ZM76.9807 18.2001C76.3807 18.6401 75.7807 17.7601 76.3807 17.3601C79.9807 14.8801 81.6607 6.6401 81.2607 3.8001C81.1007 2.5601 80.2607 5.3201 80.2207 5.4801C79.1807 8.6401 78.3407 11.9201 77.6207 15.2001C77.2207 16.9201 76.8607 18.6801 76.6607 20.4401C76.5007 21.5601 76.3007 22.8801 76.6207 23.9601C76.9007 24.9201 79.0607 23.1201 79.3807 22.8401C81.2207 21.2401 82.3007 19.8401 83.5407 17.7601C83.9007 17.1201 84.8207 17.6401 84.4207 18.2801C82.9407 20.8001 81.5407 22.8401 79.1007 24.4801C77.8607 25.3201 76.0207 26.0401 75.5007 24.1601C75.1807 22.7601 75.4207 21.1601 75.6207 19.7601C75.9007 17.7601 76.3007 15.7601 76.7807 13.8001C77.5407 10.5601 78.3007 7.2401 79.4607 4.1601C79.7407 3.4401 80.1807 2.4801 80.9807 2.2401C82.0607 1.9601 82.3407 3.2401 82.3807 4.0001C82.5407 7.5601 80.6607 15.4001 76.9807 18.2001ZM84.6788 19.4001C83.9588 19.3201 83.9588 18.2001 84.6788 18.2801C85.6788 18.3601 86.9588 17.8801 87.4388 16.9601C87.4788 16.9201 87.5988 16.5201 87.4788 16.3601C87.1588 16.0001 86.2388 16.4401 85.9188 16.6401C84.4788 17.4401 83.9988 19.1601 84.1588 20.6801C84.2788 21.8401 84.7188 23.4001 86.1588 23.2801C89.0788 23.0401 91.9988 19.2001 93.6788 17.4001C94.1988 16.8401 95.0788 17.4001 94.5988 17.9601C92.5988 20.2401 87.4388 27.0401 84.1588 23.7201C82.9188 22.4401 82.7588 20.0401 83.2388 18.4001C83.5588 17.3601 84.1988 16.4401 85.1188 15.8001C85.9588 15.2401 87.7188 14.6401 88.4388 15.7601C88.9188 16.5201 88.5588 17.4401 87.9988 18.0401C87.1988 18.9601 85.9188 19.5201 84.6788 19.4001ZM97.757 3.9601C97.877 3.2401 98.957 3.5601 98.837 4.2801C98.717 4.9601 98.437 5.6401 98.237 6.2801C96.277 12.5601 94.197 18.9201 92.917 25.4001C92.517 25.3201 92.157 25.2001 91.797 25.1201C92.437 23.5601 93.157 22.0801 94.077 20.6801C94.797 19.5601 95.597 18.3601 96.677 17.5601C97.277 17.0801 97.997 16.7601 98.757 17.0001C99.397 17.2401 99.717 17.8401 99.597 18.5201C99.477 19.2801 98.877 19.9601 98.317 20.5201C97.837 21.0001 97.277 21.4401 96.677 21.8001C96.397 22.0001 96.077 22.2001 95.757 22.3601C94.917 22.8801 94.757 22.3201 95.237 22.3601C95.837 22.4401 96.477 22.2801 97.077 22.0801C99.677 21.2401 101.757 19.2801 103.477 17.2401C103.957 16.6801 104.757 17.4001 104.277 17.9601C102.437 20.1601 100.157 22.2801 97.357 23.1601C96.517 23.4401 94.877 23.8801 94.117 23.1201C93.797 22.7601 93.837 22.3201 94.157 22.0001C94.597 21.6001 95.237 21.4001 95.717 21.0801C96.317 20.7201 96.877 20.3201 97.397 19.8401C97.717 19.5201 98.677 18.6401 98.477 18.1601C98.317 17.8001 97.517 18.3201 97.277 18.5201C96.317 19.3201 95.597 20.4001 94.917 21.4401C94.157 22.7201 93.437 24.0401 92.917 25.4001C92.637 26.0801 91.677 25.8401 91.797 25.1201C92.197 23.2401 92.637 21.4001 93.117 19.5601C94.037 16.1201 95.077 12.6801 96.117 9.2801C96.477 8.0401 96.877 6.8001 97.277 5.5601C97.437 5.0401 97.677 4.5201 97.757 3.9601ZM108.246 17.9601C108.046 18.6401 106.966 18.3601 107.166 17.6401C107.286 17.3601 107.246 17.3201 106.926 17.2801C106.726 17.2401 106.486 17.2801 106.246 17.2801C105.286 17.3601 104.526 17.8401 103.886 18.5201C103.046 19.3601 102.046 20.9201 102.326 22.2401C102.486 23.0801 104.126 21.7201 104.446 21.4401C105.326 20.6801 106.206 19.7601 106.806 18.7601C107.126 18.1601 107.926 18.5601 107.846 19.2001C107.726 19.8001 107.166 22.6401 107.926 23.0001C109.366 23.6401 113.086 19.2401 113.726 18.0401C114.326 16.9601 115.126 17.6001 114.926 18.1601C114.326 19.7601 109.006 26.3201 106.886 23.5601C105.926 22.3201 106.486 20.2401 106.726 18.8801C107.086 19.0401 107.446 19.1601 107.766 19.3201C107.006 20.6401 105.846 21.8401 104.646 22.7201C103.846 23.3201 102.326 24.1601 101.486 23.2401C100.646 22.2801 101.206 20.5201 101.646 19.5201C102.486 17.8401 104.126 16.3601 106.006 16.1601C107.206 16.0401 108.766 16.4001 108.246 17.9601ZM114.79 16.0401C114.27 16.5601 113.47 15.7601 113.99 15.2401C114.27 14.9201 114.75 15.0401 114.95 15.3601C115.07 15.6001 115.07 15.8801 115.11 16.1201C115.19 16.8801 115.19 17.6401 115.19 18.4001C115.23 20.3201 115.19 22.2401 115.15 24.1201C114.79 24.0401 114.43 23.9601 114.11 23.8401C114.63 22.7201 114.99 21.4801 115.31 20.2401C115.63 19.2001 115.91 18.1601 116.35 17.1601C116.67 16.4801 117.15 15.7201 117.91 15.4401C118.79 15.1601 119.63 15.6801 120.15 16.3201C120.55 16.8001 121.79 19.0401 124.35 17.4401C124.95 17.0801 125.59 18.0001 124.95 18.4001C122.31 19.9201 120.31 18.4401 119.67 17.4801C119.39 17.0801 118.83 16.2801 118.23 16.5201C117.15 16.9601 115.67 23.1201 115.07 24.4401C114.83 24.9201 113.99 24.6801 114.03 24.1201C114.07 22.5201 114.07 20.9201 114.07 19.2801C114.07 18.1601 114.11 17.0001 113.99 15.8801C113.99 15.8401 114.39 16.2001 114.79 16.0401ZM124.511 23.4401C124.471 23.0801 124.831 22.4001 125.191 22.3201C125.871 22.1201 126.591 22.8401 126.591 23.5201C126.551 23.7601 126.471 23.9601 126.311 24.1601C126.071 24.4801 125.591 24.5601 125.231 24.4401C124.791 24.2401 124.551 23.9201 124.511 23.4401Z" fill="#111011"/>
</svg>
